HIERARCHY
ROOT Hips
{
  OFFSET 54.0644 91.5536 7.63941
  CHANNELS 6 Xposition Yposition Zposition Zrotation Xrotation Yrotation
  JOINT spine
  {
    OFFSET 0 6.84637 0.3937
    CHANNELS 3 Zrotation Xrotation Yrotation
    JOINT spine1
    {
      OFFSET 0 9.49621 0
      CHANNELS 3 Zrotation Xrotation Yrotation
      JOINT spine2
      {
        OFFSET 0 9.09909 0
        CHANNELS 3 Zrotation Xrotation Yrotation
        JOINT Neck
        {
          OFFSET 0 23.3612 1.11378
          CHANNELS 3 Zrotation Xrotation Yrotation
          JOINT Head
          {
            OFFSET 0 7.05802 0
            CHANNELS 3 Zrotation Xrotation Yrotation
            End Site
            {
              OFFSET 0 17.0844 -5.63419
            }
          }
        }
        JOINT RightShoulder
        {
          OFFSET -3.83136 9.82631 -0.533491
          CHANNELS 3 Zrotation Xrotation Yrotation
          JOINT RightArm
          {
            OFFSET 0 12.8881 0
            CHANNELS 3 Zrotation Xrotation Yrotation
            JOINT RightArmRoll
            {
              OFFSET 0 6.50617 0
              CHANNELS 3 Zrotation Xrotation Yrotation
              JOINT RightForeArm
              {
                OFFSET 0 18.9501 0
                CHANNELS 3 Zrotation Xrotation Yrotation
                JOINT RightForeArmRoll
                {
                  OFFSET 0 7.30092 0
                  CHANNELS 3 Zrotation Xrotation Yrotation
                  JOINT RightHand
                  {
                    OFFSET 0 14.6514 0
                    CHANNELS 3 Zrotation Xrotation Yrotation
                    End Site
                    {
                      OFFSET 0 0 0
                    }
                  }
                }
              }
            }
          }
        }
        JOINT LeftShoulder
        {
          OFFSET 3.83136 9.82631 -0.533491
          CHANNELS 3 Zrotation Xrotation Yrotation
          JOINT LeftArm
          {
            OFFSET 0 12.8881 0
            CHANNELS 3 Zrotation Xrotation Yrotation
            JOINT LeftArmRoll
            {
              OFFSET 0 6.50617 0
              CHANNELS 3 Zrotation Xrotation Yrotation
              JOINT LeftForeArm
              {
                OFFSET 0 18.9501 0
                CHANNELS 3 Zrotation Xrotation Yrotation
                JOINT LeftForeArmRoll
                {
                  OFFSET 0 7.30092 0
                  CHANNELS 3 Zrotation Xrotation Yrotation
                  JOINT LeftHand
                  {
                    OFFSET 0 14.6514 0
                    CHANNELS 3 Zrotation Xrotation Yrotation
                    End Site
                    {
                      OFFSET 0 0 0
                    }
                  }
                }
              }
            }
          }
        }
      }
    }
  }
  JOINT RightUpLeg
  {
    OFFSET -6.06837 -1.11278 -0.933477
    CHANNELS 3 Zrotation Xrotation Yrotation
    JOINT RightUpLegRoll
    {
      OFFSET 0 17.1796 0
      CHANNELS 3 Zrotation Xrotation Yrotation
      JOINT RightLeg
      {
        OFFSET 0 -21.2743 0
        CHANNELS 3 Zrotation Xrotation Yrotation
        JOINT RightLegRoll
        {
          OFFSET 0 21.3439 0
          CHANNELS 3 Zrotation Xrotation Yrotation
          JOINT RightFoot
          {
            OFFSET 0 17.7652 0
            CHANNELS 3 Zrotation Xrotation Yrotation
            JOINT RightToeBase
            {
              OFFSET 0 14.8508 0
              CHANNELS 3 Zrotation Xrotation Yrotation
              End Site
              {
                OFFSET 0.0062947 7.19214 -0.829004
              }
            }
          }
        }
      }
    }
  }
  JOINT LeftUpLeg
  {
    OFFSET 6.06837 -1.11278 -0.933477
    CHANNELS 3 Zrotation Xrotation Yrotation
    JOINT LeftUpLegRoll
    {
      OFFSET 0 17.1797 0
      CHANNELS 3 Zrotation Xrotation Yrotation
      JOINT LeftLeg
      {
        OFFSET 0 21.2742 0
        CHANNELS 3 Zrotation Xrotation Yrotation
        JOINT LeftLegRoll
        {
          OFFSET 0 21.5412 0
          CHANNELS 3 Zrotation Xrotation Yrotation
          JOINT LeftFoot
          {
            OFFSET 0 17.5679 0
            CHANNELS 3 Zrotation Xrotation Yrotation
            JOINT LeftToeBase
            {
              OFFSET 0 14.8508 0
              CHANNELS 3 Zrotation Xrotation Yrotation
              End Site
              {
                OFFSET -0.0282102 7.19214 -0.829004
              }
            }
          }
        }
      }
    }
  }
}
MOTION
Frames: 8
Frame Time: 0.00208333
54.6348 91.6267 6.71762 0.557501 -5.30521 -0.717751 0.158625 -1.32162 -0.104924 0.297928 1.35079 -0.220143 0.300727 2.99584 -0.225112 -6.91074 29.6251 3.36983 3.84351 -8.60016 0.98099 70.725 8.28903 2.61549 100.831 4.95216 8.75777 -3.87268e-008 -4.69577e-007 -3.15394e-006 14.676 12.1966 -2.33011 -1.55929e-005 -6.24621e-006 -3 8.02892 -4.9514 0.697683 -69.9954 2.2044 0.204054 -103.156 12.4979 -19.8096 -3.70274e-006 1.2198e-007 1.82654e-006 -12.8551 1.7691 0.454896 5.86599e-007 -4.47974e-006 3.00452 -8.02888 -4.95146 -0.697678 174.341 -2.23305 2.00346 -180 7.01524e-015 178.828 178.089 5.16877 179.927 -2.21988e-006 1.70857e-006 0.0509399 -18.6389 67.8467 19.4146 8.13649 25.2327 -3.48774 -176.261 -6.08055 0.223883 4.54188e-006 -4.6773e-006 -1.21871 -1.60816 -4.3312 0.0561158 -1.12992e-006 -2.57075e-006 -0.0365031 18.6911 67.9058 -19.4802 -8.13649 25.2327 3.48774 
54.6421 91.6267 6.72474 0.556421 -5.31364 -0.722479 0.157958 -1.32181 -0.104932 0.298993 1.35108 -0.2201 0.301791 2.99613 -0.225104 -6.90608 29.6156 3.36916 3.84954 -8.58787 0.983495 70.7088 8.28376 2.61619 100.807 4.96704 8.69832 -3.87268e-008 -4.69577e-007 -3.15394e-006 14.7181 12.2174 -2.3338 -1.55929e-005 -6.24621e-006 -3 8.02892 -4.9514 0.697683 -70.0008 2.20687 0.203568 -103.109 12.487 -19.7761 -3.70274e-006 1.2198e-007 1.82654e-006 -12.8975 1.81236 0.4617 5.86599e-007 -4.47974e-006 3.00452 -8.02888 -4.95146 -0.697678 174.34 -2.24217 2.00663 -180 7.01524e-015 178.828 178.087 5.171 179.927 -2.21988e-006 1.70857e-006 0.0509399 -18.6351 67.8421 19.4105 8.13649 25.2327 -3.48774 -176.26 -6.09203 0.221084 4.54188e-006 -4.6773e-006 -1.21861 -1.61036 -4.333 0.0558979 -1.12992e-006 -2.57075e-006 -0.0365031 18.6912 67.9059 -19.4803 -8.13649 25.2327 3.48774 
54.6389 91.6227 6.73215 0.555211 -5.32235 -0.727228 0.157287 -1.32192 -0.104957 0.300173 1.3516 -0.220066 0.30297 2.99666 -0.225106 -6.90209 29.6048 3.36888 3.85627 -8.57481 0.986256 70.6922 8.27829 2.61689 100.786 4.98009 8.64011 -3.87268e-008 -4.69577e-007 -3.15394e-006 14.7589 12.241 -2.33797 -1.55929e-005 -6.24621e-006 -3 8.02892 -4.9514 0.697683 -70.0059 2.2086 0.20338 -103.064 12.4754 -19.7415 -3.70274e-006 1.2198e-007 1.82654e-006 -12.9407 1.85708 0.468762 5.86599e-007 -4.47974e-006 3.00452 -8.02888 -4.95146 -0.697678 174.339 -2.25172 2.00992 -180 7.01524e-015 178.827 178.084 5.17302 179.927 -2.21988e-006 1.70857e-006 0.0509399 -18.6312 67.8374 19.4062 8.13649 25.2327 -3.48774 -176.259 -6.10385 0.218142 4.54188e-006 -4.6773e-006 -1.21851 -1.6126 -4.33476 0.0556783 -1.12992e-006 -2.57075e-006 -0.0365031 18.6913 67.906 -19.4804 -8.13649 25.2327 3.48774 
54.6384 91.6222 6.7358 0.553908 -5.33124 -0.731992 0.156614 -1.32197 -0.104993 0.301433 1.35229 -0.220038 0.304229 2.99734 -0.225117 -6.89855 29.5932 3.36887 3.86349 -8.56118 0.989197 70.6753 8.2727 2.61759 100.766 4.99185 8.58278 -3.87268e-008 -4.69577e-007 -3.15394e-006 14.7988 12.2666 -2.34247 -1.55929e-005 -6.24621e-006 -3 8.02892 -4.9514 0.697683 -70.0107 2.20981 0.2034 -103.019 12.4633 -19.706 -3.70274e-006 1.2198e-007 1.82654e-006 -12.9846 1.90283 0.476003 5.86599e-007 -4.47974e-006 3.00452 -8.02888 -4.95146 -0.697678 174.337 -2.26157 2.01329 -180 7.01524e-015 178.827 178.081 5.17494 179.928 -2.21988e-006 1.70857e-006 0.0509399 -18.6272 67.8325 19.4019 8.13649 25.2327 -3.48774 -176.258 -6.11591 0.215099 4.54188e-006 -4.6773e-006 -1.2184 -1.61487 -4.3365 0.0554576 -1.12992e-006 -2.57075e-006 -0.0365031 18.6914 67.9062 -19.4805 -8.13649 25.2327 3.48774 
54.6373 91.6255 6.74367 0.552552 -5.34025 -0.736766 0.15594 -1.32198 -0.105036 0.302739 1.35307 -0.220013 0.305535 2.99812 -0.225132 -6.89528 29.581 3.36901 3.87099 -8.54725 0.99224 70.6582 8.26703 2.6183 100.747 5.00286 8.52595 -3.87268e-008 -4.69577e-007 -3.15394e-006 14.8381 12.2933 -2.34716 -1.55929e-005 -6.24621e-006 -3 8.02892 -4.9514 0.697683 -70.0153 2.21072 0.203539 -102.975 12.4509 -19.67 -3.70274e-006 1.2198e-007 1.82654e-006 -13.0289 1.94915 0.483348 5.86599e-007 -4.47974e-006 3.00452 -8.02888 -4.95146 -0.697678 174.336 -2.2716 2.0167 -180 7.01524e-015 178.827 178.078 5.17675 179.928 -2.21988e-006 1.70857e-006 0.0509399 -18.6232 67.8276 19.3976 8.13649 25.2327 -3.48774 -176.256 -6.12811 0.211999 4.54188e-006 -4.6773e-006 -1.21829 -1.61716 -4.33821 0.0552362 -1.12992e-006 -2.57075e-006 -0.0365031 18.6916 67.9063 -19.4807 -8.13649 25.2327 3.48774 
54.6326 91.6239 6.75452 0.551181 -5.34928 -0.741541 0.155265 -1.32198 -0.10508 0.304057 1.35387 -0.219989 0.306852 2.99892 -0.225149 -6.89207 29.5688 3.36919 3.87856 -8.53324 0.995308 70.6411 8.26134 2.619 100.728 5.0137 8.46924 -3.87268e-008 -4.69577e-007 -3.15394e-006 14.8774 12.3203 -2.3519 -1.55929e-005 -6.24621e-006 -3 8.02892 -4.9514 0.697683 -70.0198 2.21157 0.203708 -102.932 12.4385 -19.6338 -3.70274e-006 1.2198e-007 1.82654e-006 -13.0732 1.99563 0.490719 5.86599e-007 -4.47974e-006 3.00452 -8.02888 -4.95146 -0.697678 174.335 -2.28166 2.02012 -180 7.01524e-015 178.827 178.076 5.17855 179.928 -2.21988e-006 1.70857e-006 0.0509399 -18.6191 67.8227 19.3932 8.13649 25.2327 -3.48774 -176.255 -6.14035 0.208885 4.54188e-006 -4.6773e-006 -1.21818 -1.61945 -4.33992 0.0550146 -1.12992e-006 -2.57075e-006 -0.0365031 18.6917 67.9065 -19.4808 -8.13649 25.2327 3.48774 
54.633 91.6228 6.76053 0.549835 -5.35826 -0.746313 0.154591 -1.322 -0.105122 0.305352 1.35462 -0.219963 0.308145 2.99968 -0.225163 -6.88873 29.5567 3.3693 3.88599 -8.51938 0.998325 70.624 8.25569 2.6197 100.708 5.0249 8.41228 -3.87268e-008 -4.69577e-007 -3.15394e-006 14.9169 12.3467 -2.35655 -1.55929e-005 -6.24621e-006 -3 8.02892 -4.9514 0.697683 -70.0244 2.21256 0.203817 -102.888 12.4262 -19.598 -3.70274e-006 1.2198e-007 1.82654e-006 -13.1174 2.04181 0.498039 5.86599e-007 -4.47974e-006 3.00452 -8.02888 -4.95146 -0.697678 174.334 -2.29164 2.02352 -180 7.01524e-015 178.827 178.073 5.18039 179.929 -2.21988e-006 1.70857e-006 0.0509399 -18.6151 67.8179 19.3888 8.13649 25.2327 -3.48774 -176.254 -6.15251 0.205799 4.54188e-006 -4.6773e-006 -1.21808 -1.62173 -4.34163 0.0547934 -1.12992e-006 -2.57075e-006 -0.0365031 18.6918 67.9067 -19.481 -8.13649 25.2327 3.48774 
54.6399 91.6213 6.75185 0.548552 -5.3671 -0.751074 0.153919 -1.32206 -0.105155 0.306589 1.35526 -0.219933 0.309382 3.00032 -0.225171 -6.88506 29.5454 3.36921 3.89307 -8.50591 1.00121 70.6072 8.25014 2.62041 100.688 5.03701 8.35469 -3.87268e-008 -4.69577e-007 -3.15394e-006 14.9571 12.3717 -2.36096 -1.55929e-005 -6.24621e-006 -3 8.02892 -4.9514 0.697683 -70.0293 2.21392 0.203777 -102.843 12.4142 -19.5627 -3.70274e-006 1.2198e-007 1.82654e-006 -13.1612 2.08726 0.505232 5.86599e-007 -4.47974e-006 3.00452 -8.02888 -4.95146 -0.697678 174.333 -2.3014 2.02687 -180 7.01524e-015 178.827 178.07 5.18232 179.929 -2.21988e-006 1.70857e-006 0.0509399 -18.6111 67.8131 19.3845 8.13649 25.2327 -3.48774 -176.252 -6.16451 0.202784 4.54188e-006 -4.6773e-006 -1.21797 -1.624 -4.34337 0.054573 -1.12992e-006 -2.57075e-006 -0.0365031 18.692 67.9068 -19.4811 -8.13649 25.2327 3.48774 
